<?xml version="1.0" encoding="utf-8"?>
<!-- Generator: Adobe Illustrator 17.0.0, SVG Export Plug-In . SVG Version: 6.00 Build 0)  -->
<!DOCTYPE svg PUBLIC "-//W3C//DTD SVG 1.1//EN" "http://www.w3.org/Graphics/SVG/1.1/DTD/svg11.dtd">
<svg version="1.1" id="Layer_1" xmlns="http://www.w3.org/2000/svg" xmlns:xlink="http://www.w3.org/1999/xlink" x="0px" y="0px"
	 width="72px" height="72px" viewBox="0 0 72 72" enable-background="new 0 0 72 72" xml:space="preserve">
<g>
	<path fill="#DCC8E6" d="M54,30.857c4.259,0,7.714-3.455,7.714-7.714S58.259,15.429,54,15.429s-7.714,3.455-7.714,7.714
		S49.741,30.857,54,30.857z"/>
	<path fill="#DCC8E6" d="M67.5,5.143h-63C1.993,5.143,0,7.184,0,9.691v52.618c0,2.507,1.993,4.548,4.5,4.548h63
		c2.507,0,4.5-2.041,4.5-4.548V9.691C72,7.184,70.007,5.143,67.5,5.143z M50.93,36.916c-0.482-0.563-1.221-0.996-2.057-0.996
		c-0.82,0-1.398,0.386-2.057,0.916l-3.005,2.539c-0.627,0.45-1.125,0.755-1.848,0.755c-0.691,0-1.318-0.257-1.768-0.659
		c-0.161-0.145-0.45-0.418-0.691-0.659l-8.646-9.354c-0.643-0.739-1.607-1.205-2.684-1.205c-1.077,0-2.073,0.53-2.7,1.254
		L5.143,54.032V12.166c0.161-1.093,1.013-1.88,2.105-1.88h57.488c1.109,0,2.009,0.82,2.073,1.929l0.048,41.85L50.93,36.916z"/>
</g>
<g>
	<polyline fill="none" stroke="#FFFFFF" stroke-width="6" stroke-miterlimit="10" points="-2.613,48.166 2.719,54.166 8.052,48.166 
		13.384,54.166 18.716,48.166 24.047,54.166 29.375,48.166 34.706,54.166 40.039,48.166 45.372,54.166 50.705,48.166 56.04,54.166 
		61.371,48.166 66.707,54.166 72.047,48.166 77.387,54.166 	"/>
</g>
</svg>
